<?xml version="1.0" encoding="UTF-8"?>
<svg width="615px" height="641px" viewBox="0 0 615 641" version="1.1" xmlns="http://www.w3.org/2000/svg" xmlns:xlink="http://www.w3.org/1999/xlink">
    <title>Background</title>
    <defs>
        <rect id="path-1" x="0.569039052" y="0.569039052" width="338.767916" height="494.684616" rx="37.9359368"></rect>
        <path d="M123.045804,39.7764225 L60.0721487,2.97856379 C36.3621882,-4.79830326 10.7554308,8.09991526 2.7888841,31.6201961 C-4.98798294,55.3301566 7.91023557,80.9369139 31.4305164,88.9034606 L103.888156,97.059687 C127.787796,105.026234 146.755764,47.7429692 123.045804,39.7764225 Z" id="path-3"></path>
        <rect id="path-5" x="0" y="0" width="338.767916" height="496.579959" rx="35.4701009"></rect>
    </defs>
    <g id="Page-1" stroke="none" stroke-width="1" fill="none" fill-rule="evenodd" opacity="0.333426339">
        <g id="Login-Screen" transform="translate(-916.000000, -523.000000)">
            <g id="Background" style="mix-blend-mode: difference;" transform="translate(916.000000, 523.000000)">
                <g id="Cover-option-2" transform="translate(290.869785, 343.511346) rotate(-42.000000) translate(-290.869785, -343.511346) translate(122.369785, 96.011346)">
                    <g id="Group" transform="translate(12.347461, 12.323740)">
                        <rect id="Rectangle" fill="#BA3033" x="208.763694" y="348.105892" width="104.169257" height="123.392002"></rect>
                        <rect id="Rectangle" fill="#F7EBE3" x="0.42518064" y="348.105892" width="104.169257" height="123.392002"></rect>
                        <rect id="Rectangle" fill="#E2B5A5" x="208.763694" y="123.59264" width="104.169257" height="112.557583"></rect>
                        <g transform="translate(208.338514, 123.393525)" fill="#F7EBE3" fill-rule="nonzero" id="Path">
                            <path d="M73.7688411,79.2502512 C80.5717314,73.632404 84.8235378,65.6069079 84.8235378,56.5782248 C84.8235378,47.5495417 80.5717314,39.3234082 73.7688411,33.705561 L52.7223994,56.3775874 L73.7688411,79.2502512 Z"></path>
                            <path d="M104.594438,0.199114836 L76.1073346,30.8966373 C83.7605862,37.1163968 88.4375732,46.3457173 88.4375732,56.5782248 C88.4375732,66.8107323 83.5479959,76.0400528 76.1073346,82.2598123 L104.381847,112.957335 L104.381847,0.199114836 L104.594438,0.199114836 Z"></path>
                            <path d="M16.582045,56.5782248 C16.582045,46.3457173 21.4716223,37.1163968 28.9122836,30.8966373 L0.637770961,0.199114836 L0.637770961,112.756697 L29.1248739,82.0591748 C21.259032,75.8394154 16.582045,66.8107323 16.582045,56.5782248 Z"></path>
                            <path d="M31.4633674,33.705561 C24.6604771,39.3234082 20.4086707,47.3489043 20.4086707,56.3775874 C20.4086707,65.4062705 24.6604771,73.632404 31.4633674,79.2502512 L52.5098091,56.5782248 L31.4633674,33.705561 Z"></path>
                            <path d="M52.5098091,26.2819771 C60.5882413,26.2819771 68.0289025,29.0909007 73.5562508,33.705561 L76.1073346,30.8966373 C69.729625,25.6800649 61.4386026,22.4698665 52.5098091,22.4698665 C43.3684253,22.4698665 35.0774028,25.6800649 28.6996932,30.8966373 L31.2507771,33.705561 C37.203306,29.0909007 44.4313769,26.2819771 52.5098091,26.2819771 Z"></path>
                            <path d="M52.5098091,86.8744725 C44.4313769,86.8744725 37.203306,84.0655489 31.4633674,79.4508886 L28.9122836,82.2598123 C35.2899932,87.4763847 43.5810157,90.6865831 52.5098091,90.6865831 C61.6511929,90.6865831 69.9422154,87.4763847 76.319925,82.2598123 L73.7688411,79.4508886 C68.0289025,83.8649115 60.5882413,86.8744725 52.5098091,86.8744725 Z"></path>
                        </g>
                        <rect id="Rectangle" fill="#BA3033" x="208.763694" y="0" width="104.169257" height="123.59264"></rect>
                        <g transform="translate(226.350449, 32.101984)" id="Oval">
                            <ellipse fill="#F7EBE3" cx="34.4978739" cy="32.5032591" rx="34.0144512" ry="32.1019843"></ellipse>
                            <ellipse fill="#BA3033" cx="34.4978739" cy="32.5032591" rx="24.8730675" ry="23.474576"></ellipse>
                            <ellipse fill="#F7EBE3" cx="34.4978739" cy="32.5032591" rx="14.8813224" ry="14.0446181"></ellipse>
                            <ellipse fill="#BA3033" cx="34.4978739" cy="32.5032591" rx="7.01548057" ry="6.62103427"></ellipse>
                        </g>
                        <rect id="Rectangle" fill="#F7EBE3" x="104.594438" y="348.105892" width="104.169257" height="123.392002"></rect>
                        <polygon id="Path" fill="#0E1226" fill-rule="nonzero" points="208.763694 470.895982 156.679066 409.701575 208.763694 348.908442"></polygon>
                        <polygon id="Path" fill="#0E1226" fill-rule="nonzero" points="104.594438 348.908442 156.679066 409.902212 104.594438 470.895982"></polygon>
                        <ellipse id="Oval" stroke="#F5EAE2" stroke-width="3.99743221" cx="156.679066" cy="407.895838" rx="34.0144512" ry="32.1019843"></ellipse>
                        <g transform="translate(0.000000, 348.107415)" fill-rule="nonzero" id="Path">
                            <path d="M45.7069189,38.3202212 C41.6677028,36.1132098 37.841077,34.1068358 34.2270416,31.8998244 C23.5975255,37.3170342 16.582045,47.7501791 16.582045,59.7884232 C16.582045,71.8266673 23.8101159,82.2598123 34.2270416,87.6770221 C37.841077,85.4700107 41.6677028,83.2629993 45.7069189,81.2566252 C57.3993865,75.0368658 71.6429379,69.8202933 83.1228152,66.2088201 C83.5479959,64.2024461 83.7605862,62.1960721 83.7605862,59.9890606 C83.7605862,57.7820492 83.5479959,55.7756752 83.1228152,53.7693012 C71.6429379,49.7565531 57.3993865,44.5399807 45.7069189,38.3202212 Z" fill="#0E1226"></path>
                            <path d="M30.1878255,89.8840335 C19.3457191,83.6642741 12.1176483,72.4285796 12.1176483,59.5877858 C12.1176483,46.7469921 19.3457191,35.711935 30.1878255,29.2915381 C17.2198159,21.266042 8.71620313,13.0399086 0.42518064,0.60038964 L0.42518064,118.575182 C9.35397409,105.333113 17.2198159,97.9095296 30.1878255,89.8840335 Z" fill="#0E1226"></path>
                            <path d="M88.0123926,59.7884232 C88.0123926,61.3935224 87.7998023,62.9986217 87.5872119,64.6037209 C97.578957,61.5941598 104.807028,59.7884232 104.807028,59.7884232 C104.807028,59.7884232 97.7915473,57.9826866 87.5872119,54.9731256 C87.7998023,56.3775874 88.0123926,57.9826866 88.0123926,59.7884232 Z" fill="#0E1226"></path>
                            <path d="M50.1713156,24.0749657 C42.9432447,24.0749657 36.1403544,26.0813397 30.4004158,29.4921755 C31.6759577,30.2947251 32.9514996,31.0972747 34.4396319,31.8998244 C39.1166189,29.4921755 44.6439673,28.0877137 50.3839059,28.0877137 C66.7533606,28.0877137 80.1465507,38.9221334 83.3354055,53.3680264 C84.8235378,53.7693012 86.31167,54.3712134 87.7998023,54.7724882 C85.0361281,37.5176716 69.3044444,24.0749657 50.1713156,24.0749657 Z" fill="#BA3033"></path>
                            <path d="M50.1713156,91.2884953 C44.4313769,91.2884953 38.9040286,89.8840335 34.2270416,87.4763847 C32.9514996,88.2789343 31.6759577,89.0814839 30.1878255,89.8840335 C35.9277641,93.2948694 42.7306544,95.3012434 49.9587253,95.3012434 C69.0918541,95.3012434 84.8235378,81.8585374 87.3746216,64.6037209 C85.8864894,65.0049957 84.3983571,65.6069079 82.9102249,66.0081827 C79.9339604,80.4540756 66.3281799,91.2884953 50.1713156,91.2884953 Z" fill="#BA3033"></path>
                        </g>
                        <g transform="translate(104.169257, 235.750470)">
                            <rect id="Rectangle" fill="#E2B5A5" x="0.42518064" y="0.399752238" width="104.169257" height="112.557583"></rect>
                            <polygon id="Path" fill="#BA3033" fill-rule="nonzero" points="104.594438 113.157972 104.594438 0.399752238 0.42518064 0.399752238"></polygon>
                        </g>
                        <rect id="Rectangle" fill="#0E1226" x="208.763694" y="236.150222" width="104.169257" height="112.557583"></rect>
                        <ellipse id="Oval" stroke="#FFFFFF" stroke-width="3.99743221" cx="156.679066" cy="292.529332" rx="34.0144512" ry="32.1019843"></ellipse>
                        <ellipse id="Oval" stroke="#FFFFFF" stroke-width="3.99743221" cx="260.848323" cy="292.529332" rx="34.0144512" ry="32.1019843"></ellipse>
                        <ellipse id="Oval" stroke="#FFFFFF" stroke-width="3.99743221" cx="260.848323" cy="292.529332" rx="23.5975255" ry="22.2707516"></ellipse>
                        <line x1="284.233258" y1="292.529332" x2="189.417975" y2="292.529332" id="Path" stroke="#FFFFFF" stroke-width="3.99743221"></line>
                        <rect id="Rectangle" fill="#E2B5A5" x="0.42518064" y="123.59264" width="104.169257" height="112.557583"></rect>
                        <line x1="52.5098091" y1="244.175718" x2="52.5098091" y2="210.869909" id="Path" stroke="#FFFFFF" stroke-width="3.99743221"></line>
                        <rect id="Rectangle" fill="#BA3033" x="0.42518064" y="0" width="104.169257" height="123.59264"></rect>
                        <path d="M104.594438,123.59264 C79.9339604,125.197739 71.2177573,126.000288 52.5098091,138.640445 C32.3137287,125.599014 24.4478868,124.997101 0.42518064,123.59264 L104.594438,123.59264 Z" id="Path" fill="#BA3033" fill-rule="nonzero"></path>
                        <ellipse id="Oval" stroke="#FFFFFF" stroke-width="3.99743221" cx="52.5098091" cy="179.97175" rx="34.0144512" ry="32.1019843"></ellipse>
                        <g transform="translate(18.011935, 32.101984)" fill-rule="nonzero" id="Path">
                            <path d="M8.98703548,53.5701863 L34.7104642,32.5032591 L60.2213027,53.5701863 C65.5360607,47.9523391 68.7249155,40.5287552 68.7249155,32.5032591 C68.7249155,24.477763 65.5360607,17.0541792 60.2213027,11.4363319 L34.4978739,32.5032591 L8.98703548,11.4363319 C3.67227747,17.0541792 0.483422666,24.477763 0.483422666,32.5032591 C0.483422666,40.5287552 3.67227747,47.9523391 8.98703548,53.5701863 Z" fill="#F7EBE3"></path>
                            <path d="M60.2213027,11.4363319 C54.0561834,4.61466025 44.9147996,0.401274804 34.4978739,0.401274804 C24.2935385,0.401274804 15.1521548,4.61466025 8.77444516,11.4363319 L34.2852836,32.5032591 L60.2213027,11.4363319 Z" fill="#E2B5A5"></path>
                            <path d="M60.2213027,53.5701863 L34.7104642,32.5032591 L8.98703548,53.5701863 C15.1521548,60.391858 24.2935385,64.6052434 34.7104642,64.6052434 C44.9147996,64.6052434 54.0561834,60.391858 60.2213027,53.5701863 Z" fill="#E2B5A5"></path>
                        </g>
                        <g transform="translate(35.921904, 160.509922)" id="Path" stroke="#FFFFFF" stroke-width="3.99743221">
                            <line x1="33.3825402" y1="29.0924233" x2="15.9501339" y2="0.200637402"></line>
                            <line x1="17.4382661" y1="38.5223812" x2="0.00585988031" y2="9.6305953"></line>
                        </g>
                        <path d="M285.083619,385.023174 L260.848323,364.156885 L239.16411,382.816163 C231.510859,388.634648 226.621281,397.663331 226.621281,407.695201 C226.621281,425.55193 241.927784,439.797185 260.635733,439.797185 C279.556271,439.797185 294.650184,425.351292 294.650184,407.695201 C295.075365,398.867155 291.248739,390.841659 285.083619,385.023174 Z" id="Path" fill="#F7EBE3" fill-rule="nonzero"></path>
                        <rect id="Rectangle" fill="#E2B5A5" x="104.594438" y="0" width="104.169257" height="123.59264"></rect>
                        <rect id="Rectangle" fill="#0E1226" x="104.594438" y="123.59264" width="104.169257" height="112.557583"></rect>
                        <ellipse id="Oval" fill="#BA3033" cx="156.679066" cy="179.97175" rx="34.0144512" ry="32.1019843"></ellipse>
                        <path d="M156.679066,36.5160072 C173.048521,36.5160072 186.441711,49.1561635 186.441711,64.6052434 C186.441711,73.0320143 182.402495,81.0575104 175.387014,86.4747203 C164.119727,95.7040408 158.804969,100.519338 156.466476,103.328262 C153.915392,100.519338 148.175453,95.1021285 135.420034,84.4683462 C129.892686,79.2517738 126.703831,72.2294647 126.703831,64.6052434 C126.916421,49.1561635 140.309611,36.5160072 156.679066,36.5160072 M156.679066,32.5032591 C137.758528,32.5032591 122.664615,46.9491521 122.664615,64.6052434 C122.664615,73.4332891 126.491241,81.4587852 132.65636,87.2772699 C132.65636,87.2772699 154.340573,105.535273 154.765753,107.541647 C154.978343,109.347384 156.679066,111.95567 156.679066,111.95567 C156.679066,111.95567 158.592379,108.946109 158.592379,107.541647 C158.804969,105.334636 178.150688,89.4842813 178.150688,89.4842813 C185.80394,83.6657966 190.693517,74.6371135 190.693517,64.6052434 C190.906108,46.7485147 175.599605,32.5032591 156.679066,32.5032591 Z" id="Shape" fill="#FFFFFF" fill-rule="nonzero"></path>
                        <line x1="156.679066" y1="199.433578" x2="156.679066" y2="106.53846" id="Path" stroke="#FFFFFF" stroke-width="3.99743221" fill="#D1D3D4" fill-rule="nonzero"></line>
                        <rect id="Rectangle" fill="#BA3033" x="0.42518064" y="236.150222" width="104.169257" height="112.557583"></rect>
                        <g transform="translate(0.000000, 235.750470)" fill="#F7EBE3" fill-rule="nonzero" id="Path">
                            <path d="M18.4953579,56.7788622 C18.4953579,38.9221334 33.8018609,24.6768779 52.5098091,24.6768779 C61.0134219,24.6768779 68.8792638,27.6864389 74.8317927,32.702374 L104.594438,0.60038964 L0.42518064,0.60038964 L0.42518064,113.157972 L30.1878255,81.0559878 C22.9597546,75.0368658 18.4953579,66.4094575 18.4953579,56.7788622 Z"></path>
                            <path d="M75.044383,32.5017366 L30.1878255,80.8553504 C36.1403544,85.8712855 44.0061963,88.8808465 52.5098091,88.8808465 C71.4303476,88.8808465 86.5242603,74.4349536 86.5242603,56.7788622 C86.7368507,47.1482669 82.0598636,38.5208586 75.044383,32.5017366 Z"></path>
                        </g>
                        <line x1="142.010334" y1="165.927131" x2="171.560388" y2="193.81573" id="Path" stroke="#FFFFFF" stroke-width="3.99743221" fill="#D1D3D4" fill-rule="nonzero"></line>
                        <line x1="135.845215" y1="179.97175" x2="177.725508" y2="179.97175" id="Path" stroke="#FFFFFF" stroke-width="3.99743221" fill="#D1D3D4" fill-rule="nonzero"></line>
                        <line x1="142.010334" y1="193.81573" x2="171.560388" y2="165.927131" id="Path" stroke="#FFFFFF" stroke-width="3.99743221" fill="#D1D3D4" fill-rule="nonzero"></line>
                        <polygon id="Path" fill="#F7EBE3" fill-rule="nonzero" points="208.763694 4.41402284 156.679066 19.461828 104.594438 4.41402284"></polygon>
                    </g>
                    <g id="Group" transform="translate(-0.000000, -0.000000)" fill="#FFFFFF" fill-rule="nonzero">
                        <path d="M307.99799,0.60038964 L29.0224307,0.60038964 C16.4578827,0.60038964 0.273041076,15.6481948 0.273041076,27.4858015 L0.273041076,467.282987 C0.273041076,479.120593 16.4578827,494.168399 29.0224307,494.168399 L307.99799,494.168399 C320.562538,494.168399 336.747379,479.120593 336.747379,467.282987 L336.747379,27.2851641 C336.747379,15.6481948 320.562538,0.60038964 307.99799,0.60038964 Z M323.969873,465.47725 C323.969873,474.305296 316.303369,481.528242 306.933198,481.528242 L30.087223,481.528242 C20.7170515,481.528242 13.0505476,474.305296 13.0505476,465.47725 L13.0505476,29.0909007 C13.0505476,20.262855 20.7170515,13.0399086 30.087223,13.0399086 L306.933198,13.0399086 C316.303369,13.0399086 323.969873,20.262855 323.969873,29.0909007 L323.969873,465.47725 Z" id="Shape"></path>
                    </g>
                    <g id="Group" transform="translate(5.722359, 5.712193)" stroke="#BA3033" stroke-width="1.9987161">
                        <path d="M300.958486,482.531429 L24.3900751,482.531429 C11.1591789,482.531429 0.275699733,472.298922 0.275699733,459.859403 L0.275699733,22.6705039 C0.275699733,10.2309849 11.1591789,-0.00152256617 24.3900751,-0.00152256617 L301.171887,-0.00152256617 C314.402784,-0.00152256617 325.286263,10.2309849 325.286263,22.6705039 L325.286263,459.859403 C325.286263,472.298922 314.402784,482.531429 300.958486,482.531429 Z" id="Path"></path>
                    </g>
                </g>
                <g id="planning-poker-Ornitorinco" transform="translate(355.548273, 297.261700) rotate(-25.000000) translate(-355.548273, -297.261700) translate(185.548273, 49.261700)">
                    <mask id="mask-2" fill="white">
                        <use xlink:href="#path-1"></use>
                    </mask>
                    <use id="Rectangle" fill="#2BB4A0" fill-rule="nonzero" xlink:href="#path-1"></use>
                    <g id="Group" mask="url(#mask-2)">
                        <g transform="translate(56.011818, 226.723534)">
                            <path d="M123.045804,39.7764225 L60.0721487,2.97856379 C36.3621882,-4.79830326 10.7554308,8.09991526 2.7888841,31.6201961 C-4.98798294,55.3301566 7.91023557,80.9369139 31.4305164,88.9034606 L103.888156,97.059687 C127.787796,105.026234 146.755764,47.7429692 123.045804,39.7764225 Z" id="Path" fill="#A8894E" fill-rule="nonzero"></path>
                            <g id="Group" opacity="0.4" stroke-width="1" fill="none" fill-rule="evenodd" transform="translate(-0.000000, 0.000000)">
                                <g id="Clipped" transform="translate(-0.000000, 0.000000)">
                                    <mask id="mask-4" fill="white">
                                        <use xlink:href="#path-3"></use>
                                    </mask>
                                    <g id="SVGID_1_"></g>
                                    <path d="M42.0525787,158.515905 L177.104514,90.8002575 L176.535475,89.8518591 L177.483873,89.28282 L109.768226,-45.769115 L108.819827,-45.2000759 L108.250788,-46.1484744 L-26.6114669,21.3774931 L-26.0424279,22.3258916 L-26.9908263,22.8949306 L40.7248209,157.946866 L41.6732193,157.377827 L42.0525787,158.515905 Z M81.505953,71.0735703 L87.1963435,82.4543514 L75.8155624,88.1447419 L70.1251719,76.7639609 L81.505953,71.0735703 Z M68.9870938,74.867164 L63.2967033,63.486383 L74.6774843,57.7959925 L80.3678749,69.1767735 L68.9870938,74.867164 Z M83.4027498,70.1251719 L94.7835308,64.4347814 L100.473921,75.8155624 L89.0931403,81.505953 L83.4027498,70.1251719 Z M82.4543514,68.0386954 L76.7639609,56.6579144 L88.1447419,50.9675238 L93.8351324,62.3483049 L82.4543514,68.0386954 Z M75.6258828,54.5714378 L69.9354922,43.1906568 L81.3162733,37.5002663 L87.0066638,48.8810473 L75.6258828,54.5714378 Z M90.2312184,49.8294457 L101.611999,44.1390552 L107.30239,55.5198363 L95.9216089,61.2102268 L90.2312184,49.8294457 Z M89.0931403,47.7429692 L83.4027498,36.3621882 L94.7835308,30.6717977 L100.473921,42.0525787 L89.0931403,47.7429692 Z M82.4543514,34.2757116 L76.7639609,22.8949306 L88.1447419,17.2045401 L93.8351324,28.5853211 L82.4543514,34.2757116 Z M80.3678749,35.4137898 L68.9870938,41.1041803 L63.2967033,29.7233992 L74.6774843,24.0330087 L80.3678749,35.4137898 Z M66.9006173,42.0525787 L55.5198363,47.7429692 L49.8294457,36.3621882 L61.2102268,30.6717977 L66.9006173,42.0525787 Z M67.8490157,44.1390552 L73.5394062,55.5198363 L62.1586252,61.2102268 L56.4682347,49.8294457 L67.8490157,44.1390552 Z M60.0721487,62.3483049 L48.6913676,68.0386954 L43.0009771,56.6579144 L54.3817581,50.9675238 L60.0721487,62.3483049 Z M61.2102268,64.4347814 L66.9006173,75.8155624 L55.5198363,81.505953 L49.8294457,70.1251719 L61.2102268,64.4347814 Z M67.8490157,77.902039 L73.5394062,89.28282 L62.1586252,94.9732105 L56.4682347,83.5924295 L67.8490157,77.902039 Z M74.6774843,91.3692965 L80.3678749,102.750078 L68.9870938,108.440468 L63.2967033,97.059687 L74.6774843,91.3692965 Z M76.7639609,90.4208981 L88.1447419,84.7305076 L93.8351324,96.1112886 L82.4543514,101.801679 L76.7639609,90.4208981 Z M90.2312184,83.5924295 L101.611999,77.902039 L107.30239,89.28282 L95.9216089,94.9732105 L90.2312184,83.5924295 Z M103.698476,76.7639609 L115.079257,71.0735703 L120.769648,82.4543514 L109.388867,88.1447419 L103.698476,76.7639609 Z M102.750078,74.867164 L97.059687,63.486383 L108.440468,57.7959925 L114.130859,69.1767735 L102.750078,74.867164 Z M110.337265,56.6579144 L121.718046,50.9675238 L127.408436,62.3483049 L116.027655,68.0386954 L110.337265,56.6579144 Z M109.388867,54.5714378 L103.698476,43.1906568 L115.079257,37.5002663 L120.769648,48.8810473 L109.388867,54.5714378 Z M102.560398,41.1041803 L96.8700074,29.7233992 L108.250788,24.0330087 L113.941179,35.4137898 L102.560398,41.1041803 Z M95.9216089,27.6369227 L90.2312184,16.2561417 L101.611999,10.5657511 L107.30239,21.9465322 L95.9216089,27.6369227 Z M89.0931403,14.1696651 L83.4027498,2.7888841 L94.7835308,-2.90150642 L100.473921,8.47927462 L89.0931403,14.1696651 Z M87.0066638,15.1180636 L75.6258828,20.8084541 L69.9354922,9.42767304 L81.3162733,3.73728252 L87.0066638,15.1180636 Z M73.5394062,21.9465322 L62.1586252,27.6369227 L56.4682347,16.2561417 L67.8490157,10.5657511 L73.5394062,21.9465322 Z M60.0721487,28.5853211 L48.6913676,34.2757116 L43.0009771,22.8949306 L54.3817581,17.2045401 L60.0721487,28.5853211 Z M46.6048911,35.4137898 L35.2241101,41.1041803 L29.5337195,29.7233992 L40.9145006,24.0330087 L46.6048911,35.4137898 Z M47.5532895,37.3105866 L53.24368,48.6913676 L41.862899,54.3817581 L36.1725085,43.0009771 L47.5532895,37.3105866 Z M39.9661022,55.7095159 L28.5853211,61.3999065 L22.8949306,50.0191254 L34.2757116,44.3287349 L39.9661022,55.7095159 Z M40.9145006,57.6063128 L46.6048911,68.9870938 L35.2241101,74.6774843 L29.5337195,63.2967033 L40.9145006,57.6063128 Z M47.7429692,71.0735703 L53.4333597,82.4543514 L42.0525787,88.1447419 L36.3621882,76.7639609 L47.7429692,71.0735703 Z M54.3817581,84.7305076 L60.0721487,96.1112886 L48.6913676,101.801679 L43.0009771,90.4208981 L54.3817581,84.7305076 Z M61.2102268,98.1977652 L66.9006173,109.578546 L55.5198363,115.268937 L49.8294457,103.888156 L61.2102268,98.1977652 Z M68.0386954,111.665023 L73.7290859,123.045804 L62.3483049,128.736194 L56.6579144,117.355413 L68.0386954,111.665023 Z M69.9354922,110.716624 L81.3162733,105.026234 L87.0066638,116.407015 L75.6258828,122.097405 L69.9354922,110.716624 Z M83.4027498,103.888156 L94.7835308,98.1977652 L100.473921,109.578546 L89.0931403,115.268937 L83.4027498,103.888156 Z M96.8700074,97.059687 L108.250788,91.3692965 L113.941179,102.750078 L102.560398,108.440468 L96.8700074,97.059687 Z M110.526945,90.4208981 L121.907726,84.7305076 L127.598116,96.1112886 L116.217335,101.801679 L110.526945,90.4208981 Z M123.994202,83.5924295 L135.374983,77.902039 L141.065374,89.28282 L129.684593,94.9732105 L123.994202,83.5924295 Z M122.856124,81.505953 L117.165734,70.1251719 L128.546515,64.4347814 L134.236905,75.8155624 L122.856124,81.505953 Z M130.632991,63.2967033 L142.013772,57.6063128 L147.704163,68.9870938 L136.323382,74.6774843 L130.632991,63.2967033 Z M129.684593,61.2102268 L123.994202,49.8294457 L135.374983,44.1390552 L141.065374,55.5198363 L129.684593,61.2102268 Z M122.856124,47.7429692 L117.165734,36.3621882 L128.546515,30.6717977 L134.236905,42.0525787 L122.856124,47.7429692 Z M116.217335,34.2757116 L110.526945,22.8949306 L121.907726,17.2045401 L127.598116,28.5853211 L116.217335,34.2757116 Z M109.388867,20.8084541 L103.698476,9.42767304 L115.079257,3.73728252 L120.769648,15.1180636 L109.388867,20.8084541 Z M102.560398,7.34119652 L96.8700074,-4.03958452 L108.250788,-9.72997504 L113.941179,1.650806 L102.560398,7.34119652 Z M95.9216089,-6.12606104 L90.2312184,-17.5068421 L101.611999,-23.1972326 L107.30239,-11.8164516 L95.9216089,-6.12606104 Z M93.8351324,-5.17766262 L82.4543514,0.512727896 L76.7639609,-10.8680531 L88.1447419,-16.5584437 L93.8351324,-5.17766262 Z M80.3678749,1.650806 L68.9870938,7.34119652 L63.2967033,-4.03958452 L74.6774843,-9.72997504 L80.3678749,1.650806 Z M66.9006173,8.28959494 L55.5198363,13.9799855 L49.8294457,2.59920442 L61.2102268,-3.0911861 L66.9006173,8.28959494 Z M53.4333597,15.1180636 L42.0525787,20.8084541 L36.3621882,9.42767304 L47.7429692,3.73728252 L53.4333597,15.1180636 Z M39.7764225,21.9465322 L28.3956414,27.6369227 L22.7052509,16.2561417 L34.086032,10.5657511 L39.7764225,21.9465322 Z M26.3091649,28.5853211 L14.9283839,34.2757116 L9.23799336,22.8949306 L20.6187744,17.2045401 L26.3091649,28.5853211 Z M27.447243,30.6717977 L33.1376335,42.0525787 L21.7568525,47.7429692 L16.066462,36.3621882 L27.447243,30.6717977 Z M19.670376,48.8810473 L8.28959494,54.5714378 L2.59920442,43.1906568 L13.9799855,37.5002663 L19.670376,48.8810473 Z M20.6187744,50.9675238 L26.3091649,62.3483049 L14.9283839,68.0386954 L9.23799336,56.6579144 L20.6187744,50.9675238 Z M27.447243,64.4347814 L33.1376335,75.8155624 L21.7568525,81.505953 L16.066462,70.1251719 L27.447243,64.4347814 Z M34.086032,77.902039 L39.7764225,89.28282 L28.3956414,94.9732105 L22.7052509,83.5924295 L34.086032,77.902039 Z M40.9145006,91.3692965 L46.6048911,102.750078 L35.2241101,108.440468 L29.5337195,97.059687 L40.9145006,91.3692965 Z M47.7429692,104.836554 L53.4333597,116.217335 L42.0525787,121.907726 L36.3621882,110.526945 L47.7429692,104.836554 Z M54.3817581,118.493491 L60.0721487,129.874272 L48.6913676,135.564663 L43.0009771,124.183882 L54.3817581,118.493491 Z M61.2102268,131.960749 L66.9006173,143.34153 L55.5198363,149.03192 L49.8294457,137.651139 L61.2102268,131.960749 Z M63.2967033,130.822671 L74.6774843,125.13228 L80.3678749,136.513061 L68.9870938,142.203452 L63.2967033,130.822671 Z M76.7639609,124.183882 L88.1447419,118.493491 L93.8351324,129.874272 L82.4543514,135.564663 L76.7639609,124.183882 Z M90.2312184,117.355413 L101.611999,111.665023 L107.30239,123.045804 L95.9216089,128.736194 L90.2312184,117.355413 Z M103.698476,110.526945 L115.079257,104.836554 L120.769648,116.217335 L109.388867,121.907726 L103.698476,110.526945 Z M117.165734,103.888156 L128.546515,98.1977652 L134.236905,109.578546 L122.856124,115.268937 L117.165734,103.888156 Z M130.632991,97.059687 L142.013772,91.3692965 L147.704163,102.750078 L136.323382,108.440468 L130.632991,97.059687 Z M144.289928,90.2312184 L155.670709,84.5408279 L161.3611,95.9216089 L149.980319,101.611999 L144.289928,90.2312184 Z M143.15185,88.3344216 L137.46146,76.9536405 L148.842241,71.26325 L154.532631,82.6440311 L143.15185,88.3344216 Z M150.928717,70.1251719 L162.309498,64.4347814 L167.999889,75.8155624 L156.619108,81.505953 L150.928717,70.1251719 Z M149.980319,68.0386954 L144.289928,56.6579144 L155.670709,50.9675238 L161.3611,62.3483049 L149.980319,68.0386954 Z M143.15185,54.5714378 L137.46146,43.1906568 L148.842241,37.5002663 L154.532631,48.8810473 L143.15185,54.5714378 Z M136.323382,41.1041803 L130.632991,29.7233992 L142.013772,24.0330087 L147.704163,35.4137898 L136.323382,41.1041803 Z M129.684593,27.447243 L123.994202,16.066462 L135.374983,10.3760715 L141.065374,21.7568525 L129.684593,27.447243 Z M122.856124,13.9799855 L117.165734,2.59920442 L128.546515,-3.0911861 L134.236905,8.28959494 L122.856124,13.9799855 Z M116.027655,0.512727896 L110.337265,-10.8680531 L121.718046,-16.5584437 L127.408436,-5.17766262 L116.027655,0.512727896 Z M109.388867,-12.9545297 L103.698476,-24.3353107 L115.079257,-30.0257012 L120.769648,-18.6449202 L109.388867,-12.9545297 Z M102.560398,-26.4217872 L96.8700074,-37.8025683 L108.250788,-43.4929588 L113.941179,-32.1121778 L102.560398,-26.4217872 Z M100.473921,-25.4733888 L89.0931403,-19.7829983 L83.4027498,-31.1637793 L94.7835308,-36.8541699 L100.473921,-25.4733888 Z M87.0066638,-18.6449202 L75.6258828,-12.9545297 L69.9354922,-24.3353107 L81.3162733,-30.0257012 L87.0066638,-18.6449202 Z M73.5394062,-11.8164516 L62.1586252,-6.12606104 L56.4682347,-17.5068421 L67.8490157,-23.1972326 L73.5394062,-11.8164516 Z M60.0721487,-5.17766262 L48.6913676,0.512727896 L43.0009771,-10.8680531 L54.3817581,-16.5584437 L60.0721487,-5.17766262 Z M46.6048911,1.650806 L35.2241101,7.34119652 L29.5337195,-4.03958452 L40.9145006,-9.72997504 L46.6048911,1.650806 Z M33.1376335,8.47927462 L21.7568525,14.1696651 L16.066462,2.7888841 L27.447243,-2.90150642 L33.1376335,8.47927462 Z M19.670376,15.1180636 L8.28959494,20.8084541 L2.59920442,9.42767304 L13.9799855,3.73728252 L19.670376,15.1180636 Z M6.01343873,21.9465322 L-5.36734231,27.6369227 L-11.0577328,16.2561417 L0.323048212,10.5657511 L6.01343873,21.9465322 Z M7.15151684,24.0330087 L12.8419074,35.4137898 L1.46112632,41.1041803 L-4.2292642,29.7233992 L7.15151684,24.0330087 Z M-0.625350208,42.2422584 L-12.0061312,47.9326489 L-17.6965218,36.5518679 L-6.31574073,30.8614773 L-0.625350208,42.2422584 Z M0.323048212,44.1390552 L6.01343873,55.5198363 L-5.36734231,61.2102268 L-11.0577328,49.8294457 L0.323048212,44.1390552 Z M7.15151684,57.6063128 L12.8419074,68.9870938 L1.46112632,74.6774843 L-4.2292642,63.2967033 L7.15151684,57.6063128 Z M13.9799855,71.26325 L19.670376,82.6440311 L8.28959494,88.3344216 L2.59920442,76.9536405 L13.9799855,71.26325 Z M20.6187744,84.7305076 L26.3091649,96.1112886 L14.9283839,101.801679 L9.23799336,90.4208981 L20.6187744,84.7305076 Z M27.447243,98.1977652 L33.1376335,109.578546 L21.7568525,115.268937 L16.066462,103.888156 L27.447243,98.1977652 Z M34.2757116,111.665023 L39.9661022,123.045804 L28.5853211,128.736194 L22.8949306,117.355413 L34.2757116,111.665023 Z M40.9145006,125.13228 L46.6048911,136.513061 L35.2241101,142.203452 L29.5337195,130.822671 L40.9145006,125.13228 Z M47.7429692,138.599538 L53.4333597,149.980319 L42.0525787,155.670709 L36.3621882,144.289928 L47.7429692,138.599538 Z M163.447576,94.9732105 L157.757186,83.5924295 L169.137967,77.902039 L174.828357,89.28282 L163.447576,94.9732105 Z M-13.1442094,17.2045401 L-7.45381883,28.5853211 L-18.8345999,34.2757116 L-24.5249904,22.8949306 L-13.1442094,17.2045401 Z" id="Shape" fill="#9A7143" fill-rule="nonzero" mask="url(#mask-4)"></path>
                                </g>
                            </g>
                        </g>
                    </g>
                    <g id="Group" mask="url(#mask-2)" fill-rule="nonzero">
                        <g transform="translate(223.822027, 272.246658)" id="Path">
                            <path d="M42.6779289,13.031587 C42.6779289,13.031587 34.7113822,11.5141496 33.7629838,13.6006261 C32.8145853,15.6871026 34.7113822,17.3942198 38.1256165,20.8084541 L36.4184993,23.4639697 C36.4184993,23.4639697 30.5384291,20.9981338 29.0209917,23.0846103 C27.8829135,24.6020478 29.2106713,26.4988446 31.4868275,29.7233992 L29.2106713,32.3789148 C29.2106713,32.3789148 24.4686792,29.9130789 23.3306011,31.4305164 C22.5718824,32.3789148 22.7615621,33.7066726 24.8480386,36.9312272 L21.8131637,39.5867428 C21.8131637,39.5867428 17.6402106,37.3105866 16.3124528,38.258985 C14.984695,39.2073834 14.7950154,40.5351412 15.3640544,43.1906568 L14.7950154,43.3803365 L8.15622641,30.6717977 L17.0711716,19.8600557 L25.0377183,10.1863918 L28.0725932,7.91023557 L42.6779289,13.031587 Z" fill="#45404B"></path>
                            <polygon fill="#545A63" points="10.6220623 13.7903058 1.1380781 25.3607665 30.1590698 44.8977739"></polygon>
                            <polygon fill="#545A63" points="15.3640544 7.72055589 6.63878894 18.5322979 36.9875384 36.5518679"></polygon>
                            <polygon fill="#545A63" points="6.63878894 18.3426182 0.569039052 25.9298056 17.0711716 46.0358521"></polygon>
                            <polygon fill="#545A63" points="19.3473278 2.97856379 11.1911014 12.8419074 44.9540851 26.878204"></polygon>
                            <polygon fill="#545A63" points="21.623484 0.133368528 14.7950154 8.47927462 48.5579991 14.1696651"></polygon>
                        </g>
                    </g>
                    <g id="Group" mask="url(#mask-2)" fill-rule="nonzero">
                        <g transform="translate(174.505309, 305.384291)" id="Path">
                            <path d="M17.2608512,43.0572883 C17.2608512,43.0572883 15.3640544,35.0907415 17.4505309,34.1423431 C19.5370075,33.004265 21.2441246,34.9010619 24.8480386,38.1256165 L27.5035542,36.4184993 C27.5035542,36.4184993 24.8480386,30.5384291 26.7448354,29.0209917 C28.2622729,27.6932339 30.1590698,29.0209917 33.3836244,31.2971479 L35.8494603,29.0209917 C35.8494603,29.0209917 33.004265,24.2789996 34.7113822,23.1409214 C35.6597806,22.3822027 36.9875384,22.3822027 40.4017727,24.4686792 L42.8676086,21.4338043 C42.8676086,21.4338043 40.4017727,17.4505309 41.3501711,16.1227731 C42.2985695,14.7950154 43.6263273,14.415656 46.2818429,14.984695 L46.2818429,14.415656 L33.3836244,8.3459061 L23.1409214,17.8298903 L13.8466169,26.1757964 L11.7601404,29.400351 L17.2608512,43.0572883 Z" fill="#45404B"></path>
                            <polygon fill="#545A63" points="16.6918122 10.811742 27.8829135 0.94839842 48.7476788 29.2106713"></polygon>
                            <polygon fill="#545A63" points="11.0014217 15.9330935 21.4338043 6.63878894 40.5914524 36.2288196"></polygon>
                            <polygon fill="#545A63" points="21.0544449 6.82846862 28.4519526 0.379359368 49.3167178 15.9330935"></polygon>
                            <polygon fill="#545A63" points="6.25942957 20.1060465 15.9330935 11.5704607 31.2971479 44.7644054"></polygon>
                            <polygon fill="#545A63" points="0.94839842 18.9679684 11.5704607 15.3640544 18.588609 48.7476788"></polygon>
                        </g>
                    </g>
                    <path d="M93.3224045,106.030943 C58.0419833,125.378271 71.5092409,159.899974 92.1843264,205.423098 C104.513506,232.547293 77.7686704,246.39391 95.9779201,279.398175 C118.929162,321.317385 168.814919,337.250478 210.544449,314.299236 C256.067573,289.451198 266.879315,238.237683 243.548714,196.508153 C228.564019,170.332356 150.985028,74.3544361 93.3224045,106.030943 Z" id="Path" fill="#9A7143" fill-rule="nonzero" mask="url(#mask-2)"></path>
                    <g id="Group" mask="url(#mask-2)">
                        <g transform="translate(95.844552, 117.601404)">
                            <g transform="translate(0.000000, 30.348749)">
                                <circle id="Oval" fill="#FFFFFF" fill-rule="nonzero" cx="9.04831368" cy="9.10462483" r="8.3459061"></circle>
                                <path d="M8.28959494,6.25942957 C8.66895431,7.58718736 7.91023557,9.10462483 6.3927981,9.4839842 C5.44439968,9.67366388 4.30632158,9.4839842 3.73728252,8.72526546 C3.73728252,9.29430452 3.73728252,9.86334357 3.92696221,10.4323826 C4.68568094,13.2775779 7.5308762,14.984695 10.3760715,14.2259763 C13.2212667,13.4672576 14.9283839,10.6220623 14.1696651,7.77686704 C13.4109464,4.93167178 10.5657511,3.22455463 7.72055589,3.98327336 C7.34119652,4.17295305 6.96183715,4.17295305 6.58247778,4.55231242 C7.34119652,4.7419921 8.09991526,5.50071084 8.28959494,6.25942957 Z" id="Path" fill="#010101" fill-rule="nonzero"></path>
                            </g>
                            <g transform="translate(36.039140, 0.000000)">
                                <circle id="Oval" fill="#FFFFFF" fill-rule="nonzero" cx="8.85863399" cy="8.53558578" r="8.3459061"></circle>
                                <path d="M8.09991526,5.8800702 C8.47927462,7.20782799 7.72055589,8.72526546 6.20311842,9.10462483 C5.25472,9.29430452 4.11664189,9.10462483 3.54760284,8.3459061 C3.54760284,8.91494515 3.54760284,9.4839842 3.73728252,10.0530233 C4.49600126,12.8982185 7.34119652,14.6053357 10.1863918,13.8466169 C13.031587,13.0878982 14.7387042,10.2427029 13.9799855,7.39750768 C13.2212667,4.55231242 10.3760715,2.84519526 7.5308762,3.603914 C7.15151684,3.79359368 6.77215747,3.79359368 6.3927981,4.17295305 C7.15151684,4.17295305 7.91023557,4.93167178 8.09991526,5.8800702 Z" id="Path" fill="#010101" fill-rule="nonzero"></path>
                            </g>
                        </g>
                    </g>
                    <circle id="Oval" fill="#BA3033" fill-rule="nonzero" mask="url(#mask-2)" cx="50.8341553" cy="85.7352172" r="4.93167178"></circle>
                    <text id="5" fill="#000000" mask="url(#mask-2)" font-family="Helvetica" font-size="37.9359368" font-weight="normal">
                        <tspan x="40.9030961" y="68.7093218">5</tspan>
                    </text>
                    <circle id="Oval" fill="#BA3033" fill-rule="nonzero" mask="url(#mask-2)" cx="289.071838" cy="410.277156" r="4.93167178"></circle>
                    <text id="5" fill="#000000" mask="url(#mask-2)" transform="translate(287.691919, 441.228697) rotate(-180.000000) translate(-287.691919, -441.228697) " font-family="Helvetica" font-size="37.9359368" font-weight="normal">
                        <tspan x="276.311138" y="455.228697">5</tspan>
                    </text>
                    <text id="5" fill="#000000" mask="url(#mask-2)" font-family="Helvetica" font-size="265.551558" font-weight="normal">
                        <tspan x="103.104945" y="383.39761">5</tspan>
                    </text>
                    <circle id="Oval" fill="#1A4E47" fill-rule="nonzero" opacity="0.2" mask="url(#mask-2)" cx="73.7853971" cy="377.841931" r="12.8982185"></circle>
                    <circle id="Oval" fill="#1A4E47" fill-rule="nonzero" opacity="0.2" mask="url(#mask-2)" cx="271.052268" cy="57.2832646" r="7.96654673"></circle>
                    <circle id="Oval" fill="#1A4E47" fill-rule="nonzero" opacity="0.2" mask="url(#mask-2)" cx="275.794261" cy="109.445178" r="9.86334357"></circle>
                    <circle id="Oval" fill="#1A4E47" fill-rule="nonzero" opacity="0.2" mask="url(#mask-2)" cx="96.1675998" cy="412.363633" r="16.1227731"></circle>
                    <circle id="Oval" fill="#1A4E47" fill-rule="nonzero" opacity="0.2" mask="url(#mask-2)" cx="56.3348661" cy="431.331601" r="6.63878894"></circle>
                    <circle id="Oval" fill="#1A4E47" fill-rule="nonzero" opacity="0.2" mask="url(#mask-2)" cx="251.135902" cy="81.9416235" r="8.72526546"></circle>
                    <g id="Group" mask="url(#mask-2)">
                        <g transform="translate(87.252655, 227.615621)">
                            <g id="Group" stroke-width="1" fill="none" fill-rule="evenodd" transform="translate(19.972678, 13.277578)">
                                <path d="M23.0846103,43.0572883 C23.0846103,43.0572883 17.3942198,37.3668977 18.5322979,35.4701009 C19.670376,33.3836244 22.1362119,33.9526634 26.878204,35.0907415 L28.2059618,32.2455463 C28.2059618,32.2455463 22.8949306,28.6416323 23.6536493,26.3654761 C24.2226884,24.4686792 26.4988446,24.6583589 30.482118,24.8480386 L31.4305164,21.4338043 C31.4305164,21.4338043 26.6885243,18.9679684 27.2575633,17.0711716 C27.6369227,15.9330935 28.7750008,15.3640544 32.7582742,15.1743747 L33.3273132,11.1911014 C33.3273132,11.1911014 29.1543602,9.10462483 29.1543602,7.39750768 C29.1543602,5.69039052 30.2924383,4.7419921 32.7582742,3.79359368 L32.5685945,3.22455463 L18.3426182,4.93167178 L14.5490245,18.3989293 L10.9451105,30.3487494 L10.7554308,34.1423431 L23.0846103,43.0572883 Z" id="Path" fill="#45404B" fill-rule="nonzero"></path>
                                <polygon id="Path" fill="#545A63" fill-rule="nonzero" points="5.63407936 16.1227731 9.9967121 1.70711716 42.6216177 14.7950154"></polygon>
                                <polygon id="Path" fill="#545A63" fill-rule="nonzero" points="3.54760284 23.3306011 7.5308762 10.0530233 39.3970631 25.0377183"></polygon>
                                <polygon id="Path" fill="#545A63" fill-rule="nonzero" points="7.34119652 10.2427029 10.1863918 0.94839842 36.1725085 3.22455463"></polygon>
                                <polygon id="Path" fill="#545A63" fill-rule="nonzero" points="1.650806 29.400351 5.44439968 17.0711716 35.7931491 37.1772181"></polygon>
                                <polygon id="Path" fill="#545A63" fill-rule="nonzero" points="0.70240758 32.8145853 3.73728252 22.5718824 27.447243 47.2302413"></polygon>
                            </g>
                            <ellipse id="Oval" fill="#9A7143" fill-rule="nonzero" transform="translate(19.973536, 27.831472) rotate(109.583682) translate(-19.973536, -27.831472) " cx="19.9735363" cy="27.8314724" rx="25.418347" ry="11.1916602"></ellipse>
                        </g>
                    </g>
                    <g id="Group" mask="url(#mask-2)">
                        <g transform="translate(187.782887, 192.581190)">
                            <g id="Group" stroke-width="1" fill="none" fill-rule="evenodd" transform="translate(0.000000, 15.174375)">
                                <path d="M30.5384291,43.5700162 C30.5384291,43.5700162 33.1939447,35.9828288 31.4868275,34.655071 C29.5900307,33.3273132 27.5035542,34.8447507 23.7099605,37.8796256 L21.4338043,35.7931491 C21.4338043,35.7931491 24.6583589,30.2924383 22.9512418,28.3956414 C21.623484,26.878204 19.5370075,28.0162821 16.1227731,29.9130789 L13.8466169,27.2575633 C13.8466169,27.2575633 17.0711716,22.8949306 15.7434138,21.5671728 C14.7950154,20.6187744 13.4672576,20.6187744 10.0530233,22.3258916 L7.96654673,18.9116572 C7.96654673,18.9116572 10.811742,15.1180636 10.0530233,13.7903058 C9.29430452,12.2728683 7.96654673,11.8935089 5.31103115,12.0831886 L5.31103115,11.5141496 L18.7782887,6.96183715 L28.0725932,17.3942198 L36.4184993,26.6885243 L38.1256165,30.1027586 L30.5384291,43.5700162 Z" id="Path" fill="#45404B" fill-rule="nonzero"></path>
                                <polygon id="Path" fill="#545A63" fill-rule="nonzero" points="34.7113822 11.7038293 24.6583589 0.70240758 0.758718736 26.4988446"></polygon>
                                <polygon id="Path" fill="#545A63" fill-rule="nonzero" points="39.8327336 17.3942198 30.5384291 7.15151684 8.15622641 34.4653913"></polygon>
                                <polygon id="Path" fill="#545A63" fill-rule="nonzero" points="30.7281088 7.34119652 24.0893199 0.133368528 1.70711716 13.2212667"></polygon>
                                <polygon id="Path" fill="#545A63" fill-rule="nonzero" points="44.0056867 22.1362119 35.4701009 12.6522277 16.5021325 43.7596958"></polygon>
                                <polygon id="Path" fill="#545A63" fill-rule="nonzero" points="46.4715226 24.7917274 39.2636946 16.8251807 28.6416323 49.2604067"></polygon>
                            </g>
                            <path d="M60.1284598,38.0693053 C54.0587099,44.1390552 41.1604914,40.9145006 31.2971479,31.051157 C21.4338043,21.1878135 18.2092497,8.28959494 24.2789996,2.21984505 C30.3487494,-3.84990484 32.6249056,3.54760284 42.4882492,13.4109464 C52.3515928,23.4639697 66.00853,32.1892351 60.1284598,38.0693053 Z" id="Path" fill="#9A7143" fill-rule="nonzero"></path>
                        </g>
                    </g>
                    <g id="Group" mask="url(#mask-2)">
                        <g transform="translate(117.601404, 143.264473)">
                            <path d="M51.4031944,13.9799855 C54.4380693,10.5657511 53.1103115,7.34119652 50.2651163,3.54760284 C46.6612023,-0.815029892 40.7811321,0.133368528 35.2804212,1.27144663 C33.004265,1.650806 19.1576481,1.08176695 12.7085388,6.01343873 C6.63878894,11.1347902 4.36263273,24.7917274 3.41423431,27.0678837 C1.32775779,32.1892351 -0.94839842,37.8796256 2.65551558,42.2422584 C5.69039052,46.0358521 8.53558578,47.7429692 12.5188591,45.6564927 C14.984695,44.5184146 15.7434138,45.6564927 16.6918122,46.9842505 C17.6402106,48.1223286 31.4868275,60.2618284 33.1939447,63.6760627 C33.7629838,66.1418986 33.5733041,70.1251719 35.4701009,72.4013281 C38.3152962,75.8155624 42.2985695,75.6258828 45.7128038,72.7806875 C47.2302413,71.6426094 51.9722334,66.3315782 57.4729442,61.9689455 C62.9736551,57.6063128 69.043405,54.0023988 70.5608424,52.674641 C73.9750768,49.8294457 75.1131549,46.0358521 72.2679596,42.6216177 C70.3711628,40.3454615 66.3878894,39.5867428 64.1117332,38.4486647 C61.0768582,36.1725085 52.3515928,20.0497353 51.2135147,18.9116572 C50.0754366,17.7735791 49.8857569,16.066462 51.4031944,13.9799855 Z" id="Path" fill="#5B5557" fill-rule="nonzero"></path>
                            <g id="Group" stroke-width="1" fill="none" fill-rule="evenodd" transform="translate(43.626327, 47.419921)">
                                <circle id="Oval" fill="#2D3130" fill-rule="nonzero" cx="3.03487494" cy="13.031587" r="2.27615621"></circle>
                                <circle id="Oval" fill="#2D3130" fill-rule="nonzero" cx="15.3640544" cy="2.97856379" r="2.27615621"></circle>
                            </g>
                        </g>
                    </g>
                </g>
                <g id="planning-poker_When-pigs-fly" transform="translate(248.480386, 24.658359)">
                    <mask id="mask-6" fill="white">
                        <use xlink:href="#path-5"></use>
                    </mask>
                    <use id="Rectangle" fill="#78CBE7" fill-rule="nonzero" xlink:href="#path-5"></use>
                    <ellipse id="Oval" fill="#BA3033" fill-rule="nonzero" mask="url(#mask-6)" cx="56.5245458" cy="86.0637046" rx="4.93167178" ry="4.95056708"></ellipse>
                    <text id="∞" fill="#000000" mask="url(#mask-6)" font-family="Helvetica" font-size="43.6263273" font-weight="normal">
                        <tspan x="40.4410364" y="65.1021875">∞</tspan>
                    </text>
                    <ellipse id="Oval" fill="#BA3033" fill-rule="nonzero" mask="url(#mask-6)" cx="283.381448" cy="411.8491" rx="4.93167178" ry="4.95056708"></ellipse>
                    <g id="Group" mask="url(#mask-6)">
                        <g transform="translate(198.271581, 59.025992)">
                            <path d="M51.1572035,14.8517012 C46.0358521,16.7557655 43.3803365,22.6583647 45.2771333,27.7993382 C47.1739302,32.9403117 53.0540004,35.6060017 58.1753518,33.7019374 C69.7458126,29.3225896 75.0568437,5.90259921 75.0568437,5.90259921 C75.0568437,5.90259921 51.7262426,14.6612948 51.1572035,14.8517012 Z" id="Path" fill="#F1F2F2" fill-rule="nonzero"></path>
                            <g id="Group" stroke-width="1" fill="none" fill-rule="evenodd" transform="translate(0.000000, 23.853481)">
                                <g transform="translate(14.169665, 13.328450)" fill-rule="nonzero" id="Path">
                                    <polygon fill="#FBDAE6" points="6.82846862 34.2204792 5.31103115 29.4603186 0.379359368 30.2219443 18.7782887 0.13772898 25.4170777 4.32667035"></polygon>
                                    <polygon fill="#F5A5C4" points="6.82846862 34.2204792 5.31103115 29.4603186 0.379359368 30.2219443 3.79359368 24.5097515 10.4323826 28.5082865"></polygon>
                                </g>
                                <g transform="translate(37.935937, 27.556254)" fill-rule="nonzero" id="Path">
                                    <polygon fill="#FBDAE6" points="6.77215747 34.0827503 5.06504031 29.1321832 0.133368528 29.8938089 18.7219776 0 25.1710868 3.99853495"></polygon>
                                    <polygon fill="#F5A5C4" points="6.77215747 34.0827503 5.06504031 29.1321832 0.133368528 29.8938089 3.73728252 24.3720225 10.1863918 28.3705575"></polygon>
                                </g>
                                <g transform="translate(49.316718, 34.273157)" fill-rule="nonzero" id="Path">
                                    <polygon fill="#FBDAE6" points="6.96183715 34.4108857 5.25472 29.650725 0.323048212 30.4123507 18.7219776 0.328135406 25.3607665 4.32667035"></polygon>
                                    <polygon fill="#F5A5C4" points="6.96183715 34.4108857 5.25472 29.650725 0.323048212 30.4123507 3.92696221 24.7001579 10.3760715 28.6986929"></polygon>
                                </g>
                                <g transform="translate(0.000000, 13.328450)" fill-rule="nonzero" id="Path">
                                    <path d="M33.3273132,15.7510559 L38.258985,9.84845671 L28.0162821,1.47057396 C28.0162821,1.47057396 28.0162821,1.47057396 28.0162821,1.47057396 C25.9298056,-0.623896724 23.6536493,0.518541832 22.7052509,0.899354685 C21.7568525,1.28016754 0.512727896,10.6100824 0.512727896,10.6100824 L5.06504031,12.8949595 L3.73728252,17.8455266 L24.6020478,8.70601815 L33.3273132,15.7510559 Z" fill="#FBDAE6"></path>
                                    <polygon fill="#F5A5C4" points="3.73728252 17.6551202 5.06504031 12.7045531 0.70240758 10.6100824 6.77215747 7.94439245 9.80703241 14.9894302"></polygon>
                                </g>
                                <path d="M21.7568525,11.3717081 L24.4123681,6.99236032 C28.5853211,0.13772898 37.689946,-1.95674171 44.3287349,2.23219967 L70.1251719,18.2263395 C76.9536405,22.4152808 79.0401171,31.5547893 74.867164,38.2190142 L72.2116484,42.598362 C68.0386954,49.4529933 58.9340706,51.547464 52.2952816,47.3585226 L26.4988446,31.3643829 C19.670376,27.1754415 17.5838995,18.2263395 21.7568525,11.3717081 Z" id="Path" fill="#FBDAE6" fill-rule="nonzero"></path>
                                <polygon id="Rectangle" fill="#FBDAE6" fill-rule="nonzero" transform="translate(53.472396, 42.779210) rotate(31.630025) translate(-53.472396, -42.779210) " points="39.7944429 38.3813643 67.1354221 38.4280911 67.1503488 47.1770557 39.8093695 47.1303289"></polygon>
                            </g>
                            <path d="M65.9522189,26.6568997 C59.3134299,23.4199904 51.3468832,26.2760868 48.1223286,32.9403117 C44.8977739,39.6045366 47.7429692,47.6016065 54.3817581,50.8385158 C69.3664532,58.07396 96.6803277,41.5086009 96.6803277,41.5086009 C96.6803277,41.5086009 66.5212579,26.8473061 65.9522189,26.6568997 Z" id="Path" fill="#E6E7E8" fill-rule="nonzero"></path>
                            <g id="Group" stroke-width="1" fill="none" fill-rule="evenodd" transform="translate(42.621618, 21.949416)">
                                <path d="M10.2427029,0.328135406 C6.63878894,-0.243083872 3.22455463,1.08976111 0.758718736,3.56504465 C2.27615621,6.61154747 5.12135147,8.89642458 8.72526546,9.46764386 C12.3291795,10.0388631 15.7434138,8.70601815 18.2092497,6.23073461 C16.8814919,3.1842318 13.8466169,0.899354685 10.2427029,0.328135406 Z" id="Path" fill="#F9C8DA" fill-rule="nonzero"></path>
                                <path d="M10.0530233,1.85138681 C7.58718736,1.47057396 5.31103115,2.42260609 3.79359368,3.9458575 C4.7419921,6.04032819 6.63878894,7.5635796 9.10462483,7.94439245 C11.5704607,8.3252053 13.8466169,7.37317317 15.3640544,5.84992176 C14.415656,3.75545108 12.5188591,2.23219967 10.0530233,1.85138681 Z" id="Path" fill="#F5A5C4" fill-rule="nonzero"></path>
                            </g>
                            <path d="M40.1557818,5.33137993 C38.0693053,8.37788275 37.8796256,12.1860113 39.2073834,15.2325141 C42.6216177,15.2325141 46.0358521,13.5188563 47.9326489,10.4723534 C50.0191254,7.42585062 50.2088051,3.6177221 48.8810473,0.571219278 C45.6564927,0.761625704 42.2422584,2.28487711 40.1557818,5.33137993 Z" id="Path" fill="#F9C8DA" fill-rule="nonzero"></path>
                            <path d="M42.8112974,9.90113416 C39.0177037,7.42585062 35.9828288,6.09300563 30.482118,7.23544419 C24.9814071,8.56828917 24.4123681,10.4723534 18.7219776,7.61625704 C17.7735791,7.04503776 15.6871026,8.56828917 13.9799855,11.0435727 C12.2728683,13.5188563 11.7038293,16.1845462 12.6522277,16.7557655 C12.6522277,16.7557655 16.635501,19.4214555 17.3942198,27.2281189 C17.7735791,30.6554346 20.0497353,35.6060017 23.843329,38.2716916 C31.6201961,43.4126651 42.2422584,41.3181945 47.3636098,33.511531 C52.4849613,25.7048675 50.5881645,15.2325141 42.8112974,9.90113416 Z" id="Path" fill="#FBDAE6" fill-rule="nonzero"></path>
                            <ellipse id="Oval" fill="#F5A5C4" fill-rule="nonzero" transform="translate(15.511858, 10.852957) rotate(33.691657) translate(-15.511858, -10.852957) " cx="15.5118576" cy="10.8529568" rx="1" ry="1"></ellipse>
                            <ellipse id="Oval" fill="#F5A5C4" fill-rule="nonzero" transform="translate(15.664682, 12.547898) rotate(33.691657) translate(-15.664682, -12.547898) " cx="15.6646825" cy="12.5478977" rx="1" ry="1"></ellipse>
                            <g id="Group" stroke-width="1" fill="none" fill-rule="evenodd" transform="translate(33.137634, 18.141288)">
                                <ellipse id="Oval" fill="#FFFFFF" fill-rule="nonzero" cx="3.03487494" cy="3.56504465" rx="3.03487494" ry="3.04650282"></ellipse>
                                <path d="M3.98327336,4.13626393 C3.603914,3.9458575 3.41423431,3.37463822 3.603914,2.80341895 C3.79359368,2.42260609 4.17295305,2.23219967 4.36263273,2.23219967 C4.17295305,2.04179324 3.98327336,2.04179324 3.79359368,1.85138681 C2.84519526,1.28016754 1.70711716,1.66098039 1.32775779,2.61301252 C0.758718736,3.56504465 1.1380781,4.70748321 2.08647652,5.08829606 C3.03487494,5.46910891 4.17295305,5.27870248 4.55231242,4.32667035 C4.55231242,4.13626393 4.7419921,4.13626393 4.7419921,3.9458575 C4.7419921,4.13626393 4.36263273,4.13626393 3.98327336,4.13626393 Z" id="Path" fill="#010101" fill-rule="nonzero"></path>
                            </g>
                            <path d="M21.7568525,23.6103968 L20.6187744,23.4199904 C20.239415,24.7528354 18.9116572,25.7048675 17.5838995,25.5144611 C17.3942198,25.5144611 17.2045401,25.5144611 17.0148604,25.3240547 C17.0148604,25.7048675 17.2045401,26.0856804 17.2045401,26.4664932 C17.2045401,26.4664932 17.2045401,26.4664932 17.2045401,26.4664932 C19.4806963,27.0377125 21.3774931,25.7048675 21.7568525,23.6103968 Z" id="Path" fill="#F5A5C4" fill-rule="nonzero"></path>
                            <path d="M20.0497353,34.0827503 C20.0497353,34.0827503 21.3774931,36.177221 20.9981338,38.4620981 C20.4290947,40.7469752 28.3956414,35.9868145 28.3956414,35.9868145 L23.0846103,32.3690924 L20.0497353,34.0827503 Z" id="Path" fill="#FBDAE6" fill-rule="nonzero"></path>
                            <polygon id="Path" fill="#FBDAE6" fill-rule="nonzero" points="72.9703672 61.3108692 74.6774843 61.1204628 75.2465234 68.5463134"></polygon>
                        </g>
                    </g>
                    <g id="Group" mask="url(#mask-6)" fill="#F1F2F2" fill-rule="nonzero">
                        <g transform="translate(39.832734, 129.476370)" id="Oval">
                            <ellipse cx="30.5384291" cy="31.7978732" rx="29.9693901" ry="30.0842153"></ellipse>
                            <ellipse cx="59.9387801" cy="15.9941398" rx="15.5537341" ry="15.6133269"></ellipse>
                            <ellipse cx="69.2330847" cy="46.0783551" rx="22.7615621" ry="22.8487711"></ellipse>
                            <ellipse cx="80.2345063" cy="23.4199904" rx="9.86334357" ry="9.90113416"></ellipse>
                        </g>
                    </g>
                    <text id="∞" fill="#000000" mask="url(#mask-6)" font-family="Helvetica" font-size="303.487494" font-weight="normal">
                        <tspan x="64.2312314" y="303.917304">∞</tspan>
                    </text>
                    <g id="Group" mask="url(#mask-6)" fill="#F1F2F2" fill-rule="nonzero">
                        <g transform="translate(224.826737, 243.720225)" id="Oval">
                            <ellipse cx="52.2952816" cy="33.8923438" rx="24.2789996" ry="24.3720225"></ellipse>
                            <ellipse cx="34.4653913" cy="13.3284498" rx="12.7085388" ry="12.7572305"></ellipse>
                            <ellipse cx="18.9116572" cy="33.7019374" rx="18.588609" ry="18.6598298"></ellipse>
                            <ellipse cx="17.0148604" cy="13.3284498" rx="7.96654673" ry="7.9970699"></ellipse>
                        </g>
                    </g>
                    <g id="Group" mask="url(#mask-6)" fill="#F1F2F2" fill-rule="nonzero">
                        <g transform="translate(144.156560, -1.904064)" id="Oval">
                            <ellipse cx="24.8480386" cy="24.3720225" rx="24.2789996" ry="24.3720225"></ellipse>
                            <ellipse cx="51.7825537" cy="26.0856804" rx="12.7085388" ry="12.7572305"></ellipse>
                        </g>
                    </g>
                    <g id="Group" mask="url(#mask-6)" fill="#F1F2F2" fill-rule="nonzero">
                        <g transform="translate(194.477987, 425.611040)" id="Oval">
                            <ellipse cx="35.7931491" cy="36.5053564" rx="35.6597806" ry="35.7964081"></ellipse>
                            <ellipse cx="84.5408279" cy="43.1695813" rx="27.1241948" ry="27.2281189"></ellipse>
                        </g>
                    </g>
                    <text id="∞" fill="#000000" mask="url(#mask-6)" transform="translate(283.429627, 449.005452) rotate(-180.000000) translate(-283.429627, -449.005452) " font-family="Helvetica" font-size="43.6263273" font-weight="normal">
                        <tspan x="267.306853" y="465.505452">∞</tspan>
                    </text>
                    <g id="Group" mask="url(#mask-6)">
                        <g transform="translate(36.039140, 303.750927)">
                            <path d="M89.7184905,23.9385322 C98.2540763,27.1754415 102.616709,36.8861692 99.3921544,45.4544584 C96.1675998,54.0227476 86.4939359,58.4020954 77.9583501,55.1651861 C58.6110224,47.7393355 49.8857569,8.89642458 49.8857569,8.89642458 C49.8857569,8.89642458 88.7700921,23.5577194 89.7184905,23.9385322 Z" id="Path" fill="#F1F2F2" fill-rule="nonzero"></path>
                            <g id="Group" stroke-width="1" fill="none" fill-rule="evenodd" transform="translate(49.316718, 95.203213)">
                                <polygon id="Path" fill="#FBDAE6" fill-rule="nonzero" points="16.1227731 60.496566 20.8647652 53.6419347 28.4519526 57.0692504 12.3291795 0.518541832 0 4.13626393"></polygon>
                                <polygon id="Path" fill="#F5A5C4" fill-rule="nonzero" points="16.1227731 60.496566 20.8647652 53.6419347 28.4519526 57.0692504 25.4170777 46.4064905 13.0878982 49.8338062"></polygon>
                            </g>
                            <g id="Group" stroke-width="1" fill="none" fill-rule="evenodd" transform="translate(71.186193, 88.486311)">
                                <polygon id="Path" fill="#FBDAE6" fill-rule="nonzero" points="16.635501 60.5492435 21.3774931 53.5042057 28.9646805 56.9315214 12.8419074 0.571219278 0.323048212 3.99853495"></polygon>
                                <polygon id="Path" fill="#F5A5C4" fill-rule="nonzero" points="16.635501 60.5492435 21.3774931 53.5042057 28.9646805 56.9315214 25.9298056 46.2687615 13.4109464 49.8864836"></polygon>
                            </g>
                            <g id="Group" stroke-width="1" fill="none" fill-rule="evenodd" transform="translate(107.225333, 63.733475)">
                                <path d="M8.47927462,26.6568997 L0.323048212,16.7557655 L17.3942198,2.66568997 C17.3942198,2.66568997 17.3942198,2.66568997 17.5838995,2.47528354 C21.1878135,-0.95203213 24.7917274,0.95203213 26.3091649,1.71365783 C27.8266024,2.47528354 63.1070236,18.0886105 63.1070236,18.0886105 L55.7095159,21.7063326 L57.9856721,29.8938089 L23.4639697,14.4708884 L8.47927462,26.6568997 Z" id="Path" fill="#FBDAE6" fill-rule="nonzero"></path>
                                <polygon id="Path" fill="#F5A5C4" fill-rule="nonzero" points="57.7959925 29.7034025 55.3301566 21.7063326 62.9173439 17.8982041 52.8643207 13.5188563 47.5532895 25.3240547"></polygon>
                            </g>
                            <g id="Group" stroke-width="1" fill="none" fill-rule="evenodd" transform="translate(99.638145, 78.965989)">
                                <path d="M5.63407936,21.896739 L0.70240758,9.90113416 L20.9981338,1.33284498 C20.9981338,1.33284498 21.1878135,1.33284498 21.1878135,1.33284498 C25.5504462,-0.761625704 28.5853211,2.09447069 29.7233992,3.04650282 C31.051157,4.18894137 60.2618284,29.512996 60.2618284,29.512996 L52.1056019,30.845841 L51.9159223,39.2237238 L23.27429,14.4708884 L5.63407936,21.896739 Z" id="Path" fill="#FBDAE6" fill-rule="nonzero"></path>
                                <polygon id="Path" fill="#F5A5C4" fill-rule="nonzero" points="51.9159223 39.2237238 52.1056019 30.845841 60.2618284 29.512996 51.9159223 22.2775519 43.5700162 31.9882796"></polygon>
                            </g>
                            <path d="M138.655849,57.8308761 L134.103537,50.4050255 C127.085388,38.9806399 112.100693,35.3629178 100.719912,42.4079556 L57.8523036,68.8744488 C46.4715226,75.9194866 42.8676086,90.9615942 49.8857569,102.38598 L54.4380693,109.81183 C61.4562176,121.236216 76.4409126,124.853938 87.8216937,117.8089 L130.689302,91.3424071 C142.070083,84.2973693 145.673997,69.0648552 138.655849,57.8308761 Z" id="Path" fill="#FBDAE6" fill-rule="nonzero"></path>
                            <path d="M59.1800614,38.9806399 C71.8886002,32.8876343 87.062975,38.2190142 93.1327248,50.9762447 C99.2024747,63.7334753 93.8914436,78.9659894 81.1829047,85.058995 C52.5412725,98.9586641 0.379359368,67.3511974 0.379359368,67.3511974 C0.379359368,67.3511974 58.0419833,39.5518592 59.1800614,38.9806399 Z" id="Path" fill="#E6E7E8" fill-rule="nonzero"></path>
                            <g id="Group" stroke-width="1" fill="none" fill-rule="evenodd" transform="translate(73.082989, 35.172511)">
                                <path d="M13.6006261,1.14243856 C19.670376,0.190406426 25.3607665,2.47528354 29.3440399,6.66422491 C26.878204,11.8051984 22.1362119,15.6133269 16.066462,16.5653591 C9.9967121,17.5173912 4.30632158,15.2325141 0.323048212,11.0435727 C2.7888841,5.90259921 7.5308762,2.09447069 13.6006261,1.14243856 Z" id="Path" fill="#F9C8DA" fill-rule="nonzero"></path>
                                <path d="M13.9799855,3.80812852 C17.9632588,3.23690924 21.7568525,4.76016065 24.4123681,7.42585062 C22.7052509,10.8531663 19.4806963,13.5188563 15.4974229,14.0900755 C11.5141496,14.6612948 7.72055589,13.1380434 5.06504031,10.4723534 C6.77215747,7.04503776 9.9967121,4.3793478 13.9799855,3.80812852 Z" id="Path" fill="#F5A5C4" fill-rule="nonzero"></path>
                            </g>
                            <path d="M107.92774,8.13479888 C111.341975,13.2757724 111.721334,19.368778 109.634857,24.7001579 C103.944467,24.7001579 98.443756,21.8440616 95.0295217,16.8934945 C91.6152874,11.9429274 91.235928,5.65951534 93.3224045,0.328135406 C98.8231154,0.328135406 104.513506,3.1842318 107.92774,8.13479888 Z" id="Path" fill="#F9C8DA" fill-rule="nonzero"></path>
                            <path d="M103.565107,15.7510559 C109.824537,11.5621145 115.135568,9.27723743 124.050513,11.3717081 C133.155138,13.4661788 134.103537,16.703088 143.587521,11.9429274 C145.104958,10.9908953 148.519193,13.4661788 151.364388,17.6551202 C154.209583,21.8440616 155.157982,26.0330029 153.640544,27.1754415 C153.640544,27.1754415 147.001755,31.5547893 145.673997,44.5024263 C145.104958,50.0242126 141.121685,58.5925018 134.862255,62.7814432 C121.964037,71.5401388 104.323826,67.9224167 95.7882404,54.9747797 C87.2526546,42.0271427 90.6668889,24.5097515 103.565107,15.7510559 Z" id="Path" fill="#FBDAE6" fill-rule="nonzero"></path>
                            <ellipse id="Oval" fill="#F5A5C4" fill-rule="nonzero" transform="translate(149.126509, 17.343082) rotate(146.308343) translate(-149.126509, -17.343082) " cx="149.126509" cy="17.3430821" rx="1" ry="1.52139867"></ellipse>
                            <ellipse id="Oval" fill="#F5A5C4" fill-rule="nonzero" transform="translate(148.760332, 19.957857) rotate(146.308343) translate(-148.760332, -19.957857) " cx="148.760332" cy="19.9578574" rx="1" ry="1.52139867"></ellipse>
                            <g id="Group" stroke-width="1" fill="none" fill-rule="evenodd" transform="translate(109.122129, 29.460319)">
                                <ellipse id="Oval" fill="#FFFFFF" fill-rule="nonzero" cx="5.44439968" cy="5.90259921" rx="4.93167178" ry="4.95056708"></ellipse>
                                <path d="M3.92696221,6.66422491 C4.68568094,6.28341206 5.06504031,5.33137993 4.68568094,4.56975423 C4.49600126,3.99853495 3.92696221,3.80812852 3.35792316,3.80812852 C3.54760284,3.6177221 3.92696221,3.42731567 4.11664189,3.23690924 C5.63407936,2.47528354 7.5308762,3.04650282 8.28959494,4.56975423 C9.04831368,6.09300563 8.47927462,7.9970699 6.96183715,8.7586956 C5.44439968,9.5203213 3.54760284,8.94910203 2.7888841,7.42585062 C2.59920442,7.23544419 2.59920442,7.04503776 2.59920442,6.66422491 C2.7888841,6.85463134 3.35792316,7.04503776 3.92696221,6.66422491 Z" id="Path" fill="#010101" fill-rule="nonzero"></path>
                            </g>
                            <path d="M138.466169,38.599827 L140.173286,38.2190142 C140.742326,40.5038913 143.018482,42.0271427 145.294638,41.6463299 C145.673997,41.6463299 145.863677,41.4559234 146.053357,41.4559234 C145.863677,42.0271427 145.863677,42.7887684 145.673997,43.3599877 C145.673997,43.3599877 145.673997,43.3599877 145.484318,43.3599877 C142.449443,44.1216134 139.224888,42.0271427 138.466169,38.599827 Z" id="Path" fill="#F5A5C4" fill-rule="nonzero"></path>
                            <path d="M141.501044,55.9268118 C141.501044,55.9268118 139.224888,59.5445339 139.983607,63.162256 C140.932005,66.7799781 127.464748,58.9733146 127.464748,58.9733146 L136.379693,52.880309 L141.501044,55.9268118 Z" id="Path" fill="#FBDAE6" fill-rule="nonzero"></path>
                            <polygon id="Path" fill="#FBDAE6" fill-rule="nonzero" points="53.2999912 97.2450063 49.1270382 95.9121613 43.816007 111.525488"></polygon>
                        </g>
                    </g>
                </g>
            </g>
        </g>
    </g>
</svg>