<?xml version="1.0" encoding="UTF-8"?>
<svg width="40px" height="40px" viewBox="0 0 40 40" version="1.1" xmlns="http://www.w3.org/2000/svg" xmlns:xlink="http://www.w3.org/1999/xlink">
    <title>google-icon</title>
    <g id="Page-1" stroke="none" stroke-width="1" fill="none" fill-rule="evenodd">
        <g id="Login-Screen" transform="translate(-544.000000, -551.000000)" fill-rule="nonzero">
            <g id="Group" transform="translate(524.000000, 413.000000)">
                <g id="Google-Light" transform="translate(0.000000, 118.000000)">
                    <g id="google-icon" transform="translate(20.000000, 20.000000)">
                        <path d="M39.0653435,20.3741985 C39.0653435,18.7354198 38.9323664,17.539542 38.6445802,16.2993893 L19.9312977,16.2993893 L19.9312977,23.6960305 L30.9155725,23.6960305 C30.6941985,25.5341985 29.4983206,28.3024427 26.8407634,30.1625954 L26.8035115,30.410229 L32.7203053,34.9938931 L33.130229,35.0348092 C36.8949618,31.5578626 39.0653435,26.4421374 39.0653435,20.3741985" id="Shape" fill="#4285F4"></path>
                        <path d="M19.9312977,39.8625954 C25.3126718,39.8625954 29.8303817,38.0908397 33.130229,35.0348092 L26.8407634,30.1625954 C25.1577099,31.3363359 22.8987786,32.1557252 19.9312977,32.1557252 C14.6606107,32.1557252 10.1871756,28.6789313 8.59251908,23.8732824 L8.35877863,23.8931298 L2.20641221,28.6545038 L2.1259542,28.8781679 C5.40351145,35.3890076 12.1358779,39.8625954 19.9312977,39.8625954" id="Shape" fill="#34A853"></path>
                        <path d="M8.59251908,23.8732824 C8.17175573,22.6331298 7.92824427,21.3042748 7.92824427,19.9312977 C7.92824427,18.5581679 8.17175573,17.2294656 8.57038168,15.989313 L8.55923664,15.7251908 L2.32977099,10.8873282 L2.1259542,10.9842748 C0.775114504,13.6861069 0,16.7201527 0,19.9312977 C0,23.1424427 0.775114504,26.1763359 2.1259542,28.8781679 L8.59251908,23.8732824" id="Shape" fill="#FBBC05"></path>
                        <path d="M19.9312977,7.70671756 C23.6738931,7.70671756 26.1984733,9.32335878 27.6380153,10.6743511 L33.2630534,5.1821374 C29.8083969,1.97099237 25.3126718,0 19.9312977,0 C12.1358779,0 5.40351145,4.47343511 2.1259542,10.9842748 L8.57038168,15.989313 C10.1871756,11.1836641 14.6606107,7.70671756 19.9312977,7.70671756" id="Shape" fill="#EB4335"></path>
                    </g>
                </g>
            </g>
        </g>
    </g>
</svg>